<svg width="23" height="22" viewBox="0 0 23 22" fill="none" xmlns="http://www.w3.org/2000/svg">
<g clip-path="url(#clip0_2_32)">
<mask id="mask0_2_32" style="mask-type:luminance" maskUnits="userSpaceOnUse" x="0" y="0" width="23" height="22">
<path d="M22.1304 0H0.130371V22H22.1304V0Z" fill="white"/>
</mask>
<g mask="url(#mask0_2_32)">
<path d="M10.7007 0.0257798C10.619 0.0343724 10.3655 0.0644513 10.1421 0.0902329C8.59087 0.266405 6.97525 0.859373 5.62173 1.74883C3.00493 3.46758 1.28618 6.21328 0.882275 9.31992C0.800634 9.93437 0.792041 11.2062 0.856494 11.7949C0.993994 12.9894 1.31196 14.141 1.78892 15.1637L1.97798 15.5676L1.06704 18.15C0.254931 20.4617 0.1604 20.7625 0.156103 21.016C0.151806 21.2566 0.168994 21.3254 0.280713 21.5101C0.452588 21.7808 0.744775 21.9656 1.04556 21.9914C1.24751 22.0043 1.51392 21.9226 3.91587 21.0805L6.56275 20.1523L6.93657 20.3285C10.8167 22.1461 15.4358 21.45 18.6198 18.5711C20.1581 17.1789 21.2667 15.3484 21.7866 13.3375C22.5471 10.4027 22.01 7.25312 20.3342 4.75234C18.6241 2.20429 16.0374 0.575779 12.9565 0.103122C12.5483 0.0429669 11.0186 -0.0128917 10.7007 0.0257798ZM12.312 1.33203C14.1467 1.49961 15.8397 2.18281 17.305 3.33867C17.7089 3.65664 18.4737 4.42148 18.8003 4.83398C21.546 8.29297 21.5116 13.1613 18.7143 16.6074C17.219 18.4508 14.9717 19.684 12.5698 19.9805C12.0757 20.0406 10.9284 20.0406 10.4042 19.9805C9.32993 19.8558 8.40181 19.5851 7.29321 19.0695C6.91509 18.8933 6.76899 18.8461 6.59712 18.8461C6.42954 18.8461 5.86235 19.0308 4.02329 19.6711C2.72564 20.1266 1.66001 20.4918 1.64712 20.4832C1.63853 20.4703 2.00376 19.4047 2.45923 18.107C3.09946 16.268 3.28423 15.7008 3.28423 15.5332C3.28423 15.3613 3.23696 15.2152 3.06079 14.8371C2.369 13.3547 2.10259 12.1816 2.10259 10.6348C2.10259 9.54765 2.2272 8.74414 2.56665 7.72578C3.92876 3.59218 7.98501 0.93242 12.312 1.33203Z" fill="#722F37"/>
<path d="M7.69278 4.9887C7.49083 5.06604 7.34473 5.19494 6.7002 5.83948C6.2834 6.25627 5.90528 6.67307 5.85372 6.7676C5.54004 7.39065 5.54004 8.17698 5.84942 9.12659C6.13301 9.98166 6.73458 11.0301 7.54669 12.0742C8.03653 12.7102 9.42012 14.0938 10.056 14.5836C11.3838 15.6106 12.6556 16.2723 13.674 16.457C14.0392 16.5258 14.6666 16.5172 14.9459 16.4399C15.3326 16.3324 15.556 16.1649 16.3123 15.4086C16.9697 14.7512 17.0599 14.6481 17.1459 14.416C17.2662 14.0895 17.249 13.6942 17.1029 13.4063C16.9697 13.1399 15.4014 11.5629 15.1178 11.4082C14.8299 11.2492 14.4517 11.2192 14.1338 11.3223C13.9533 11.3824 13.8244 11.477 13.5107 11.782L13.1154 12.1645L12.7201 11.9238C11.706 11.2965 10.8338 10.4242 10.2064 9.41018L9.96583 9.01487L10.3482 8.61955C10.6533 8.30588 10.7478 8.17698 10.808 7.99651C10.9111 7.67854 10.881 7.30041 10.7221 7.01252C10.5674 6.72893 8.99044 5.16057 8.72403 5.02737C8.44473 4.88557 8.00215 4.86838 7.69278 4.9887ZM9.54044 7.57971C9.54044 7.60119 9.36856 7.79885 9.15372 8.0137C8.71973 8.45627 8.6252 8.63245 8.6295 8.98909C8.6295 9.19963 8.65958 9.28987 8.83575 9.61213C9.67364 11.1633 10.967 12.4567 12.5182 13.2945C12.8404 13.4707 12.9307 13.5008 13.1412 13.5008C13.4978 13.5051 13.674 13.4106 14.1166 12.9766C14.3314 12.7617 14.5291 12.5899 14.5506 12.5899C14.5721 12.5899 14.8943 12.8949 15.2682 13.2688L15.9428 13.9434L15.3326 14.5535C14.6021 15.2797 14.5549 15.3012 13.9576 15.1981C12.7631 14.9918 11.1217 13.9563 9.64786 12.4824C8.17403 11.0086 7.13848 9.36722 6.93223 8.17268C6.82911 7.57541 6.85059 7.52815 7.57676 6.79768L8.18692 6.18752L8.86153 6.86213C9.23536 7.23596 9.54044 7.55823 9.54044 7.57971Z" fill="#722F37"/>
</g>
</g>
<defs>
<clipPath id="clip0_2_32">
<rect width="23" height="22" fill="white"/>
</clipPath>
</defs>
</svg>
