<svg width="23" height="22" viewBox="0 0 23 22" fill="none" xmlns="http://www.w3.org/2000/svg">
<g clip-path="url(#clip0_2_45)">
<mask id="mask0_2_45" style="mask-type:luminance" maskUnits="userSpaceOnUse" x="0" y="0" width="23" height="22">
<path d="M22.2609 0H0.260864V22H22.2609V0Z" fill="white"/>
</mask>
<g mask="url(#mask0_2_45)">
<path d="M1.21045 4.19375C0.922565 4.27109 0.737798 4.38281 0.565923 4.58047C0.140532 5.06172 0.174907 5.72344 0.690532 7.26602C1.43389 9.4875 2.74444 11.8937 4.19249 13.707C6.04014 16.023 7.99092 17.3379 10.2081 17.7719C10.7495 17.8793 12.0214 17.8793 12.4382 17.7762C13.1343 17.6 13.5167 17.2863 13.6456 16.7793C13.6628 16.7062 13.6757 16.1605 13.6714 15.5676C13.6671 14.9703 13.6757 14.416 13.6929 14.3301L13.7187 14.1797L13.9636 14.3086C14.4878 14.5879 15.2054 15.2453 16.2753 16.4184C17.0745 17.2949 17.3151 17.5141 17.7062 17.6988L18.0284 17.8535H19.5968C21.453 17.8535 21.4788 17.8492 21.8827 17.4453C22.0761 17.2477 22.1405 17.1488 22.2007 16.9512C22.4757 16.0016 21.7925 14.8672 19.4206 12.3449C18.9522 11.8465 18.5655 11.4211 18.5655 11.4082C18.5655 11.391 18.7546 11.1074 18.9909 10.7723C19.8847 9.4918 20.8343 7.92344 21.3155 6.93945C21.7409 6.07148 21.8054 5.86094 21.8097 5.37109C21.8097 4.89414 21.7323 4.70508 21.4401 4.45156C21.0964 4.15937 21.0105 4.14648 19.2745 4.14648C17.7577 4.14648 17.7233 4.14648 17.4827 4.24531C17.3409 4.30117 17.1304 4.43867 16.9972 4.56328C16.7523 4.78242 16.7265 4.82969 16.2452 5.87813C15.6093 7.25313 14.78 8.61953 14.071 9.46172C13.6112 10.0031 13.6499 10.1578 13.68 7.79453C13.7101 5.14766 13.68 4.87266 13.2847 4.46875C12.9495 4.1207 12.9452 4.1207 10.5433 4.13359L8.48506 4.14648L8.23155 4.27539C7.78467 4.50312 7.51827 4.98438 7.58272 5.44844C7.61709 5.70195 7.77178 6.03711 7.98663 6.325C8.08116 6.44961 8.19717 6.63008 8.24444 6.72461C8.4335 7.10703 8.44209 7.20156 8.44639 9.03633V10.7937L8.27881 10.6047C8.06397 10.3641 7.4753 9.46602 7.15733 8.89453C6.63741 7.96641 6.12178 6.80625 5.67491 5.57305C5.38702 4.77812 5.15499 4.46875 4.66084 4.24531C4.45459 4.15078 4.41163 4.14648 2.94639 4.13789C1.72608 4.1293 1.39952 4.13789 1.21045 4.19375ZM4.17959 5.57305C4.21827 5.61602 4.3085 5.81367 4.37725 6.01562C5.03038 7.85469 5.94131 9.69805 6.83506 10.9656C7.18311 11.4641 7.85342 12.1387 8.1628 12.3063C8.65694 12.5727 9.2628 12.4824 9.54209 12.1C9.81709 11.7305 9.82139 11.6746 9.82139 9.32421C9.82139 7.40351 9.8128 7.16289 9.73975 6.85352C9.65811 6.48398 9.43038 5.95547 9.27139 5.74062C9.21553 5.66758 9.15538 5.58164 9.13819 5.55156C9.11241 5.51289 9.43897 5.5 10.698 5.5H12.2921V7.65703C12.2964 8.84727 12.3136 10.0117 12.3308 10.248C12.3737 10.7551 12.4897 11.0687 12.7089 11.2621C12.9065 11.434 13.0355 11.4812 13.3276 11.477C13.9636 11.477 14.7155 10.9184 15.4933 9.87422C16.2194 8.89883 16.9241 7.68281 17.5429 6.35078C17.7276 5.94258 17.9167 5.58164 17.9554 5.55156C18.0069 5.51289 18.3292 5.5 19.2187 5.5C20.1468 5.5 20.4132 5.51289 20.4132 5.55156C20.4132 5.58164 20.3444 5.7707 20.2628 5.96836C19.9792 6.65586 19.0468 8.22422 18.0327 9.71094C17.3237 10.7508 17.1733 11.0516 17.1733 11.4254C17.1776 11.9367 17.2808 12.0914 18.4366 13.2988C18.9522 13.8359 19.6784 14.6566 20.0351 15.1078C20.4261 15.5977 20.8858 16.341 20.8858 16.4828C20.8858 16.4914 20.323 16.5 19.6312 16.5H18.3808L18.196 16.3926C18.0972 16.3324 17.7405 15.9844 17.4011 15.6105C15.9015 13.9477 14.9132 13.1227 14.1269 12.882C13.7015 12.7531 13.1644 12.7832 12.8808 12.9508C12.6358 13.0926 12.494 13.2945 12.3952 13.6426C12.3351 13.8531 12.3179 14.1281 12.3093 15.1422C12.2964 16.2508 12.2878 16.3926 12.2233 16.427C12.1847 16.4484 11.9183 16.4785 11.6304 16.4871C10.0921 16.5559 8.54092 15.9586 7.08428 14.7426C5.6835 13.5695 4.31709 11.7734 3.18702 9.6207C2.5253 8.35312 1.81631 6.54414 1.7003 5.82227C1.68311 5.72773 1.66163 5.61602 1.64874 5.57305C1.63155 5.5043 1.70889 5.5 2.87334 5.5C4.00342 5.5 4.11944 5.50859 4.17959 5.57305Z" fill="#722F37"/>
</g>
</g>
<defs>
<clipPath id="clip0_2_45">
<rect width="23" height="22" fill="white"/>
</clipPath>
</defs>
</svg>
