<svg width="18" height="25" viewBox="0 0 18 25" fill="none" xmlns="http://www.w3.org/2000/svg">
<g clip-path="url(#clip0_2_74)">
<mask id="mask0_2_74" style="mask-type:luminance" maskUnits="userSpaceOnUse" x="0" y="0" width="18" height="25">
<path d="M18 0H0V25H18V0Z" fill="white"/>
</mask>
<g mask="url(#mask0_2_74)">
<path d="M17.3019 25.125H0.98938C0.740739 25.125 0.502282 25.0262 0.326467 24.8504C0.150652 24.6746 0.0518799 24.4362 0.0518799 24.1875V6.41064C0.0518799 6.162 0.150652 5.92355 0.326467 5.74773C0.502282 5.57192 0.740739 5.47314 0.98938 5.47314H17.3019C17.5505 5.47314 17.789 5.57192 17.9648 5.74773C18.1406 5.92355 18.2394 6.162 18.2394 6.41064V24.1875C18.2394 24.4362 18.1406 24.6746 17.9648 24.8504C17.789 25.0262 17.5505 25.125 17.3019 25.125ZM1.92688 23.25H16.3644V7.34814H1.92688V23.25Z" fill="#722F37"/>
<path d="M12.8013 10.625C12.5526 10.625 12.3142 10.5263 12.1384 10.3505C11.9625 10.1746 11.8638 9.93618 11.8638 9.68754V4.59379C11.8485 3.88283 11.5554 3.20612 11.0472 2.7087C10.539 2.21128 9.85615 1.93271 9.14502 1.93271C8.43389 1.93271 7.75106 2.21128 7.24285 2.7087C6.73465 3.20612 6.44152 3.88283 6.42627 4.59379V9.68754C6.42627 9.93618 6.3275 10.1746 6.15168 10.3505C5.97587 10.5263 5.73741 10.625 5.48877 10.625C5.24013 10.625 5.00167 10.5263 4.82586 10.3505C4.65004 10.1746 4.55127 9.93618 4.55127 9.68754V4.59379C4.57115 3.38858 5.06388 2.23945 5.92321 1.39417C6.78254 0.548901 7.93964 0.0751953 9.14502 0.0751953C10.3504 0.0751953 11.5075 0.548901 12.3668 1.39417C13.2262 2.23945 13.7189 3.38858 13.7388 4.59379V9.68754C13.7388 9.93618 13.64 10.1746 13.4642 10.3505C13.2884 10.5263 13.0499 10.625 12.8013 10.625Z" fill="#722F37"/>
</g>
</g>
<defs>
<clipPath id="clip0_2_74">
<rect width="18" height="25" fill="white"/>
</clipPath>
</defs>
</svg>
