<svg width="106" height="46" viewBox="0 0 106 46" fill="none" xmlns="http://www.w3.org/2000/svg">
<path d="M9.1199 0.612066L24.6838 37.0739H25.3118L40.0476 0.612066H49.9957L29.8718 45.3805H20.1239L0 0.612066H9.1199ZM93.1375 14.7552C92.6097 13.4291 91.9 12.2414 91.0078 11.1921C90.1339 10.1282 89.0879 9.22471 87.868 8.48148C86.6482 7.7237 85.2561 7.14808 83.6903 6.75463C82.1428 6.36112 80.4408 6.1644 78.5842 6.1644C75.435 6.1644 72.5953 6.81292 70.065 8.1099C67.5347 9.40688 65.5323 11.3087 64.0578 13.8152C62.6016 16.3072 61.8735 19.3603 61.8735 22.9744C61.8735 26.6031 62.6107 29.6707 64.0852 32.1773C65.5596 34.6839 67.5803 36.5856 70.1469 37.8826C72.7136 39.1796 75.6353 39.8281 78.9119 39.8281C81.9522 39.8281 84.6002 39.3327 86.858 38.3417C89.1327 37.3507 90.89 35.9517 92.1275 34.1447C93.3834 32.323 94.0113 30.1808 94.0113 27.7179L96.1963 28.0458H80.1949V22.4716H102.176V27.5649C102.176 31.3247 101.175 34.5892 99.1727 37.358C97.1879 40.1123 94.439 42.24 90.9261 43.741C87.4307 45.242 83.426 45.9925 78.9119 45.9925C73.8513 45.9925 69.4097 45.0599 65.5869 43.1945C61.7824 41.3292 58.8153 38.6841 56.6855 35.2595C54.5557 31.8203 53.4908 27.7398 53.4908 23.0181C53.4908 19.4477 54.1097 16.2416 55.3475 13.3999C56.5854 10.5582 58.3238 8.14632 60.5628 6.1644C62.8201 4.16789 65.4686 2.645 68.5087 1.59575C71.5668 0.531914 74.9071 -4.89208e-06 78.5296 -4.89208e-06C81.5517 -4.89208e-06 84.3639 0.357035 86.967 1.07111C89.5885 1.78519 91.9184 2.79802 93.9569 4.10959C96.0137 5.42117 97.7157 6.98046 99.0629 8.78753C100.41 10.58 101.32 12.5692 101.793 14.7552H93.1375Z" fill="#2B070B"/>
<path d="M96.3638 34.435C97.5386 32.7306 98.1843 30.7652 98.3118 28.5534H100.02L100.095 27.5589L97.9095 27.231L97.3353 27.1448V27.5534H84.5189V22.9792H105.5V27.5725C105.5 31.2382 104.526 34.3975 102.591 37.0725L102.591 37.0732C100.666 39.7448 97.9936 41.8189 94.5536 43.2888L94.5527 43.2891C91.1302 44.7589 87.1946 45.5 82.7359 45.5C77.7374 45.5 73.3736 44.5791 69.631 42.7531C65.9065 40.927 63.0123 38.3444 60.9346 35.0038C58.8614 31.6561 57.8148 27.6701 57.8148 23.0257C57.8148 19.5136 58.4234 16.377 59.6299 13.6071C60.8397 10.8297 62.5356 8.47828 64.7181 6.54646C66.923 4.59621 69.5135 3.10526 72.4958 2.07593L72.4969 2.07553C75.4963 1.03211 78.7804 0.507533 82.3536 0.507533C85.3363 0.507533 88.1035 0.859894 90.6587 1.56084L90.6595 1.56107C93.2377 2.26333 95.5197 3.25679 97.5103 4.53762L97.512 4.53871C99.522 5.82041 101.178 7.33928 102.486 9.09392L102.487 9.09547C103.666 10.6633 104.497 12.3846 104.985 14.2627H97.2962C96.7647 13.015 96.0714 11.8863 95.2153 10.8789C94.3056 9.77216 93.218 8.83353 91.954 8.06312C90.6858 7.27559 89.2456 6.6817 87.6366 6.27738C86.0432 5.87226 84.2994 5.67194 82.4082 5.67194C79.1884 5.67194 76.2691 6.33557 73.6609 7.67249C71.0442 9.01377 68.9723 10.9829 67.4509 13.5693L67.4501 13.5705C65.9392 16.1561 65.1975 19.3013 65.1975 22.9819C65.1975 26.6779 65.9486 29.8381 67.4782 32.4383C69.0007 35.0266 71.0922 36.9957 73.7454 38.3364C76.3912 39.6734 79.3919 40.3357 82.7359 40.3357C85.8296 40.3357 88.5486 39.8316 90.8827 38.8072M96.3638 34.435C96.3636 34.4354 96.3633 34.4357 96.3631 34.436L95.9515 34.1522L96.364 34.4347C96.3639 34.4348 96.3639 34.4349 96.3638 34.435ZM96.3638 34.435C95.0666 36.3291 93.231 37.784 90.8827 38.8072M90.8827 38.8072C90.8828 38.8071 90.8829 38.8071 90.883 38.8071L90.6821 38.3495L90.8817 38.8076C90.882 38.8075 90.8824 38.8073 90.8827 38.8072ZM24.2713 44.888L4.59692 1.1196H12.6137L28.0479 37.2777L28.1776 37.5814H28.5078H29.1358H29.473L29.5994 37.2688L44.2087 1.1196H53.0467L33.3724 44.888H24.2713Z" stroke="#2B070B"/>
</svg>
