<svg width="22" height="22" viewBox="0 0 22 22" fill="none" xmlns="http://www.w3.org/2000/svg">
<path d="M19.6583 1.71446C19.2329 1.85626 14.9231 3.27853 10.0763 4.87696C5.23366 6.4711 1.13014 7.82462 0.958268 7.88907C0.571549 8.02657 0.305143 8.2586 0.141862 8.58517C-0.0214197 8.91603 -0.0257165 9.41446 0.124674 9.71095C0.249283 9.95587 0.489908 10.2094 0.696158 10.3168C0.782096 10.3598 1.91217 10.8625 3.20553 11.4297C4.49889 11.9969 5.56022 12.4652 5.56881 12.4738C5.57741 12.4824 5.91256 14.0121 6.31217 15.8727C6.71608 17.7332 7.07702 19.3274 7.11999 19.4133C7.28327 19.7484 7.67428 19.8602 8.01373 19.6668C8.10827 19.6109 9.00202 18.9535 9.99889 18.2059L11.8122 16.8481L13.9091 18.5625C15.0606 19.5078 16.1005 20.3285 16.2165 20.393C16.4915 20.5434 16.8696 20.5777 17.2091 20.4746C17.5571 20.3758 17.9524 19.9848 18.0599 19.6367C18.0985 19.5078 19.0052 15.6879 20.0708 11.1504C22.1978 2.09689 22.086 2.65548 21.8583 2.2086C21.6263 1.75743 21.2396 1.50392 20.7325 1.47384C20.4575 1.46095 20.3673 1.47814 19.6583 1.71446ZM20.6896 2.86603C20.6724 2.93478 19.8001 6.63868 18.7517 11.1031C17.7032 15.5676 16.8353 19.2328 16.8224 19.2414C16.8095 19.2543 16.7665 19.2328 16.7278 19.1984C16.6849 19.1641 15.2024 17.9481 13.4278 16.5C11.6575 15.052 10.188 13.8531 10.1708 13.8359C10.1536 13.8188 11.6489 12.2246 13.5009 10.291C15.3528 8.35743 16.9083 6.70743 16.9599 6.6215C17.0243 6.51837 17.0587 6.39806 17.0587 6.26915C17.0587 6.09728 17.0329 6.04142 16.8954 5.88673C16.7407 5.71056 16.7149 5.69767 16.4743 5.68478L16.2208 5.66759L11.1634 8.47775L6.11022 11.2879L3.69538 10.2352C2.37194 9.65509 1.30202 9.16525 1.3235 9.14376C1.35788 9.10939 20.5649 2.7586 20.6638 2.75431C20.7067 2.75001 20.711 2.78009 20.6896 2.86603ZM12.9337 8.99767C12.9337 9.00626 11.9755 10.0203 10.8024 11.2449C9.62936 12.4695 8.64108 13.5266 8.611 13.5996C8.58092 13.6684 8.38327 14.3172 8.18131 15.0391C7.97506 15.7609 7.79459 16.3625 7.77741 16.384C7.75163 16.4141 6.90944 12.5899 6.90084 12.4051C6.89655 12.3492 7.62702 11.9238 9.90436 10.6563C11.5587 9.73673 12.9165 8.98048 12.9251 8.98048C12.9294 8.98048 12.9337 8.98907 12.9337 8.99767ZM10.2181 15.5461C10.5103 15.7824 10.7466 15.9887 10.7466 16.0059C10.7466 16.0488 8.87311 17.4453 8.86022 17.4109C8.85592 17.3938 8.96764 16.9727 9.10944 16.4785C9.5735 14.8715 9.53483 14.9789 9.61647 15.052C9.65514 15.0863 9.92584 15.3055 10.2181 15.5461Z" fill="#722F37"/>
</svg>
